<svg version="1.1" id="Layer_1" xmlns="http://www.w3.org/2000/svg" xmlns:xlink="http://www.w3.org/1999/xlink" x="0px" y="0px"
	 width="100%" viewBox="0 0 1024 1024" enable-background="new 0 0 1024 1024" xml:space="preserve">
<path fill="#000000" opacity="1.000000" stroke="none" 
	d="
M278.780823,539.336792 
	C273.773682,537.848816 269.104279,536.596741 264.559326,534.992004 
	C257.969818,532.665405 255.412613,529.182678 255.762360,522.184631 
	C257.626709,484.880127 256.262573,447.544312 257.011536,410.230957 
	C257.165283,402.571808 257.385895,394.913818 257.609314,387.256287 
	C257.813110,380.269867 262.622833,377.043396 269.159515,379.808838 
	C272.322449,381.146973 275.168640,383.233734 279.212219,385.597687 
	C279.635620,378.923981 280.021149,372.933044 280.392975,366.941254 
	C280.526642,364.787964 280.327118,362.563507 280.803986,360.492218 
	C281.887573,355.785736 287.699524,353.989929 292.141571,357.131958 
	C295.333527,359.389801 298.145386,362.184937 302.022888,365.508392 
	C302.615082,357.274628 303.163177,350.080902 303.640686,342.882538 
	C304.037201,336.905426 304.252411,330.914886 304.731171,324.944977 
	C305.133759,319.925690 309.456329,316.709808 314.255920,318.317474 
	C319.601349,320.108032 324.699554,322.638245 329.899567,324.860138 
	C331.404663,325.503235 332.834167,326.397003 335.077484,326.273499 
	C337.485687,319.350586 337.422729,311.998810 338.645782,304.895020 
	C338.983276,302.934875 338.933014,300.886078 339.447296,298.982422 
	C340.768402,294.091827 345.008942,291.848999 349.881531,293.452179 
	C356.719879,295.702118 362.878601,299.444061 369.290009,302.618073 
	C373.020294,304.464783 374.851562,303.652344 375.266571,299.445557 
	C376.199249,289.992218 375.349365,280.470581 376.548187,271.010529 
	C376.969727,267.683960 377.720947,265.119202 381.125000,264.155334 
	C384.338562,263.245453 386.674164,264.879669 388.323944,267.384857 
	C390.611969,270.859222 392.709259,274.463440 394.794525,278.066254 
	C398.850128,285.073425 399.481201,285.235138 405.228882,279.891327 
	C425.000183,261.509125 446.760895,245.959152 471.077484,234.170349 
	C482.761353,228.505951 494.724548,223.418625 506.546295,218.037201 
	C510.413422,216.276825 514.189331,216.364456 518.160156,217.854309 
	C556.167847,232.114639 590.736877,251.983597 620.294556,280.107788 
	C625.656921,285.210114 626.365479,285.033600 630.127930,278.648407 
	C632.241882,275.060974 634.263184,271.414337 636.503662,267.907684 
	C638.238098,265.192902 640.697815,263.692322 644.122498,264.430206 
	C647.601929,265.179840 648.366638,267.765350 648.547241,270.787720 
	C649.112854,280.252930 649.668335,289.718750 650.263794,299.182068 
	C650.365173,300.794373 649.841248,302.529114 651.235107,304.247406 
	C655.617554,304.091949 658.935730,300.963745 662.824524,299.344574 
	C666.351501,297.876068 669.615356,295.787079 673.104614,294.214569 
	C680.263489,290.988281 685.323730,293.873749 686.203552,301.598022 
	C686.955566,308.199432 687.652100,314.807678 688.301575,321.419952 
	C688.467346,323.108612 688.696167,324.713684 689.928345,326.252472 
	C693.856445,326.172241 696.991028,323.744141 700.474304,322.362183 
	C703.101257,321.319977 705.566223,319.859924 708.210266,318.872284 
	C715.479309,316.156982 719.957642,319.449890 720.314880,327.539948 
	C720.593567,333.850555 720.881775,340.164093 721.358887,346.461670 
	C721.834473,352.738525 722.605835,358.993011 722.298096,366.417175 
	C726.018066,363.201477 728.902161,360.584717 731.922180,358.135681 
	C734.495239,356.049133 737.397156,354.801605 740.700684,356.408295 
	C744.102661,358.062866 744.481506,361.170074 744.343445,364.494843 
	C744.059692,371.326172 744.943970,378.076141 745.602051,384.755646 
	C747.600281,385.723755 748.557983,384.188232 749.758179,383.477753 
	C751.758789,382.293396 753.587952,380.750885 755.694397,379.826508 
	C762.435913,376.868225 767.258423,380.004761 767.354980,387.385315 
	C767.681946,412.377197 767.992310,437.369476 768.206299,462.362518 
	C768.343262,478.360535 768.247437,494.360565 768.375427,510.358704 
	C768.404602,514.007812 769.022888,517.648193 769.202148,521.300842 
	C769.607056,529.551575 767.440063,532.959290 759.602844,535.410706 
	C743.402039,540.478333 727.132507,545.326599 710.889526,550.259277 
	C659.289001,565.929565 607.699158,581.635376 556.063965,597.190491 
	C552.100769,598.384399 549.646240,600.334167 547.677795,604.054810 
	C535.321899,627.409790 504.437195,632.412415 485.098907,614.398499 
	C481.362183,610.917664 478.921173,606.556335 476.773865,602.036255 
	C475.595123,599.554993 473.769775,598.278198 471.222870,597.502869 
	C437.164276,587.133240 403.143555,576.638611 369.069153,566.321350 
	C339.133087,557.257141 309.141327,548.376709 278.780823,539.336792 
M590.329590,345.875275 
	C597.563354,331.581024 606.203064,318.129852 614.884155,304.695099 
	C619.823669,297.050690 619.742188,296.923340 613.029175,290.751587 
	C589.163940,268.810577 562.794556,250.668716 532.707581,238.264755 
	C528.512451,236.535202 524.463440,234.090469 519.495850,233.910492 
	C517.731750,240.452606 519.273315,246.774139 519.054626,253.032089 
	C518.744873,261.898590 518.915222,262.047363 527.531799,264.336151 
	C549.414673,270.148865 568.534668,290.809662 567.484070,319.757874 
	C566.665100,342.322693 549.990417,363.188507 526.534851,369.390411 
	C518.414551,371.537537 518.221375,371.541962 518.419189,380.107605 
	C519.003418,405.401520 517.989014,430.684387 519.299133,456.018524 
	C520.048706,470.513397 519.770691,485.276794 519.287170,499.913666 
	C519.230713,501.622070 518.571228,503.573425 520.149048,505.058197 
	C521.920715,504.834259 522.104980,503.363647 522.577637,502.183350 
	C531.969055,478.729706 541.159241,455.193390 550.775696,431.832458 
	C562.695068,402.876984 574.819031,373.998627 590.329590,345.875275 
M467.134033,250.731995 
	C446.383209,261.756958 428.313660,276.429779 410.818695,291.919373 
	C407.285217,295.047821 406.974915,297.855499 409.432434,301.832977 
	C416.958710,314.014130 424.555450,326.173615 431.500000,338.688232 
	C452.760498,377.001099 469.480042,417.396515 485.590637,458.059113 
	C490.309662,469.969757 495.158295,481.829773 500.041229,493.674347 
	C501.569641,497.381866 502.243835,501.569733 505.383453,504.747070 
	C507.073334,502.273834 506.628632,499.878174 506.631348,497.594238 
	C506.677643,458.443359 506.693817,419.292419 506.709717,380.141510 
	C506.713196,371.652679 506.700867,371.652679 498.289368,369.496979 
	C469.199310,362.041718 451.512573,331.771362 459.389709,302.753540 
	C465.194550,281.369629 479.528412,268.802338 500.730194,263.885071 
	C505.420807,262.797150 507.082214,260.847870 506.746674,256.139648 
	C506.368622,250.835037 506.676025,245.482727 506.654053,240.151291 
	C506.626648,233.509048 505.853577,232.886505 499.869598,235.290604 
	C488.889893,239.701706 478.234253,244.821182 467.134033,250.731995 
M365.963440,315.613464 
	C361.823730,313.801331 358.490204,310.041473 353.551880,310.141327 
	C352.135437,312.432678 351.704346,314.708893 351.359558,317.016846 
	C350.451324,323.095886 349.715820,329.207947 348.578003,335.243988 
	C346.086517,348.461121 343.558777,361.675781 340.738190,374.825500 
	C335.474854,399.363312 332.446320,424.261414 328.517029,449.013824 
	C328.192657,451.057159 327.461212,453.574371 329.474609,455.105621 
	C331.507660,456.651855 333.679840,455.289185 335.557587,454.309174 
	C342.636627,450.614502 349.639282,446.773834 356.702148,443.047668 
	C358.952057,441.860657 360.249115,440.135925 360.551697,437.604523 
	C361.309937,431.260406 361.675049,424.888550 362.555084,418.539764 
	C365.452454,397.637756 368.125000,376.697632 370.368347,355.717010 
	C370.905182,350.696808 373.587952,345.228149 369.091003,340.095398 
	C373.675751,337.698547 372.352234,333.349792 373.026611,329.717468 
	C374.755554,320.404846 374.666016,320.388214 365.963440,315.613464 
M695.761108,441.425568 
	C695.138977,428.286499 691.508850,415.595642 689.992188,402.565308 
	C688.747742,391.874298 685.689331,381.408081 683.952271,370.757843 
	C680.855286,351.769775 675.048340,333.298645 673.321228,314.049072 
	C673.016357,310.650482 670.850403,309.570038 667.613037,311.305756 
	C663.359558,313.586273 659.074036,315.809143 654.767822,317.988678 
	C652.049194,319.364685 651.016602,321.437469 651.307556,324.484314 
	C651.938599,331.093933 652.859497,337.675659 653.633423,344.260742 
	C657.274963,375.246429 661.397766,406.175415 665.255310,437.136261 
	C665.615906,440.030945 666.619995,442.273071 669.198547,443.624542 
	C676.555542,447.480408 683.901733,451.360748 691.334473,455.066467 
	C694.591797,456.690460 696.449768,455.292816 696.675049,451.747620 
	C696.876892,448.572021 696.559570,445.427246 695.761108,441.425568 
M704.686218,410.907166 
	C708.152832,427.197357 709.861877,443.676300 710.494324,460.315826 
	C710.702759,465.800415 708.696594,469.275116 703.898865,471.351044 
	C696.281128,474.647156 688.648560,477.912109 680.976318,481.078979 
	C648.477112,494.493652 616.457214,508.891754 586.263184,527.050964 
	C575.372131,533.601074 564.454895,540.116150 553.214722,548.665894 
	C558.464355,547.270874 561.882019,545.245117 565.420471,543.511047 
	C611.255188,521.049805 658.676453,502.622131 707.528381,487.892975 
	C712.868225,486.282898 715.221802,483.808136 714.823120,478.039337 
	C713.848389,463.934479 713.406250,449.793762 712.599426,435.676086 
	C711.859680,422.731628 711.058960,409.787415 710.010681,396.865356 
	C709.552246,391.214478 707.922729,384.917389 708.589172,380.061035 
	C709.411987,374.065765 707.789734,368.672363 708.164062,363.038300 
	C708.311096,360.826141 706.937012,359.526031 705.149597,358.387421 
	C709.202576,354.927124 707.842773,350.713348 707.652771,346.846100 
	C706.903442,331.601898 705.028687,334.494354 693.639404,339.171173 
	C691.987427,339.849548 691.490784,340.909760 691.864868,342.718750 
	C693.432800,350.301575 694.663086,357.959351 696.406616,365.499573 
	C699.812683,380.230164 702.134338,395.145233 704.686218,410.907166 
M317.679718,487.768616 
	C335.604218,492.896454 353.256714,498.866577 370.870392,504.955933 
	C388.349274,510.998718 405.418610,518.083862 422.282532,525.635193 
	C439.077332,533.155518 455.844147,540.747864 472.363159,548.917786 
	C466.649597,545.410339 461.457489,541.217285 455.868500,537.627625 
	C430.042908,521.040344 403.286560,506.150513 375.018005,494.115662 
	C359.113434,487.344604 343.350067,480.222443 326.982452,474.566772 
	C316.787231,471.043915 314.311707,467.384003 314.704285,456.405121 
	C315.210480,442.249359 317.748566,428.314545 320.083466,414.393005 
	C323.755829,392.497345 326.838409,370.496429 331.679779,348.798798 
	C333.703094,339.731018 333.409058,339.665436 324.799011,336.676361 
	C319.221222,334.739990 319.272400,335.440948 317.879181,341.049622 
	C315.603607,350.210510 320.895203,359.496063 316.538116,368.539886 
	C313.999207,373.809814 316.277130,379.669586 315.744659,385.267639 
	C314.690094,396.354126 313.612701,407.481110 313.475616,418.602844 
	C313.229248,438.594086 311.330475,458.497192 310.835999,478.471832 
	C310.713043,483.437866 311.827728,486.581787 317.679718,487.768616 
M734.670898,467.597076 
	C734.358215,463.116547 733.890442,458.640564 733.758972,454.154724 
	C733.085938,431.188171 731.468445,408.250793 731.623352,385.257690 
	C731.635925,383.389618 732.039368,381.201660 729.739624,380.121979 
	C724.473816,384.341675 723.068542,387.190216 723.413025,391.790436 
	C724.120544,401.239594 724.657593,410.701416 725.303772,420.155365 
	C726.221558,433.584076 727.359192,447.000854 728.048828,460.440948 
	C728.526367,469.747894 729.294678,479.016113 730.181763,488.286804 
	C730.618591,492.851501 728.629089,497.376129 724.416260,498.192352 
	C720.151672,499.018585 716.051697,500.225189 711.955688,501.450958 
	C661.976746,516.407715 612.900146,533.792419 565.741455,556.271851 
	C555.879944,560.972534 546.101990,565.848633 536.285583,570.643860 
	C537.169800,571.159973 537.740906,570.975525 538.282898,570.727539 
	C558.148926,561.639343 578.859314,554.761292 599.535461,547.893799 
	C642.157654,533.736938 684.975037,520.176697 728.263733,508.160767 
	C737.036560,505.725586 737.110168,505.311310 736.372253,496.456055 
	C735.598633,487.172852 735.231995,477.855713 734.670898,467.597076 
M582.461121,458.970062 
	C601.528076,439.173889 620.732544,419.514862 641.999329,402.028412 
	C645.438232,399.200806 646.056580,395.799164 645.580261,391.808807 
	C645.225769,388.839539 645.343567,385.711700 644.407776,382.939087 
	C643.150024,379.212341 645.337524,374.416931 639.881836,370.629456 
	C638.646973,372.305695 637.527344,374.169922 636.082703,375.733978 
	C619.012390,394.216309 603.150391,413.725311 587.307312,433.243011 
	C574.828247,448.616333 560.984436,462.914612 550.215698,479.639801 
	C543.035156,490.791870 537.220764,502.608490 534.020752,515.638550 
	C549.078430,496.065887 565.283447,477.566742 582.461121,458.970062 
M297.285767,508.131531 
	C318.654541,513.881897 339.917267,519.989685 361.106018,526.382385 
	C382.463409,532.825867 403.680389,539.686096 424.784790,546.890625 
	C445.532623,553.973511 466.292603,561.049622 486.383789,569.945679 
	C480.699097,566.763367 474.793701,564.092102 469.030151,561.143433 
	C437.844147,545.188904 405.563843,531.809570 372.520874,520.265625 
	C349.738342,512.306274 326.593445,505.458282 303.452423,498.630219 
	C296.658508,496.625580 294.758820,494.412933 295.376495,487.315491 
	C296.486969,474.555084 297.769379,461.804810 298.591187,449.025269 
	C299.819153,429.931030 300.649963,410.811554 301.783508,391.710754 
	C302.105011,386.293152 298.752197,383.576477 295.120911,380.294769 
	C293.571991,383.289490 293.451569,385.812225 293.444366,388.250305 
	C293.383881,408.743195 292.423920,429.203308 291.294220,449.656281 
	C290.431671,465.273560 289.550751,480.891724 288.445160,496.492981 
	C287.859222,504.761292 288.332886,505.732819 297.285767,508.131531 
M410.250885,426.251160 
	C438.672974,452.801300 464.868744,481.431244 488.978363,512.281860 
	C490.806732,510.016724 489.935883,508.737274 489.493835,507.604614 
	C483.525665,492.313599 476.079010,477.860382 465.359802,465.266418 
	C458.991180,457.784058 452.660309,450.268768 446.379303,442.712769 
	C427.213531,419.656464 408.204681,396.465698 387.730194,374.536621 
	C386.420868,373.134277 385.455780,371.207520 382.604218,370.865936 
	C381.840302,377.964142 381.218811,385.017700 380.278900,392.028534 
	C379.638611,396.804565 381.262695,400.159546 384.912567,403.300507 
	C393.368164,410.577118 401.488037,418.243835 410.250885,426.251160 
M451.960175,421.442413 
	C434.050415,381.210022 414.763672,341.708679 390.626892,304.557922 
	C388.846832,306.047882 388.647705,307.607605 388.521942,309.028503 
	C387.409088,321.603607 386.495361,334.197266 385.279999,346.761902 
	C384.853607,351.170471 386.418121,354.441589 389.390564,357.442322 
	C410.039642,378.288025 428.763794,400.818024 447.201202,423.599792 
	C450.006744,427.066376 453.029297,430.357300 455.951477,433.729462 
	C456.232513,433.526550 456.513550,433.323669 456.794617,433.120758 
	C455.298431,429.454163 453.802246,425.787598 451.960175,421.442413 
M610.088440,346.483307 
	C594.175659,374.963470 581.096069,404.773407 567.243713,435.550201 
	C568.751221,434.788025 568.935669,434.750458 569.033020,434.637695 
	C592.069397,407.946686 613.003845,379.446289 638.055298,354.484497 
	C639.680786,352.864838 640.851868,350.799133 640.443359,348.183136 
	C638.878357,338.162170 637.941956,328.084229 637.551758,317.941376 
	C637.389404,313.722870 636.606567,309.528259 636.105957,305.322754 
	C635.693542,305.212891 635.281067,305.103027 634.868652,304.993164 
	C626.131897,318.239746 618.242126,332.013031 610.088440,346.483307 
M552.415100,328.837280 
	C553.129089,324.925812 554.963806,321.160004 554.594727,317.121613 
	C553.016663,299.855499 546.907837,286.071533 526.819397,278.197571 
	C520.201416,275.603577 518.392822,276.965424 518.386536,284.054138 
	C518.366455,306.850098 518.088562,329.647339 519.142456,352.434967 
	C519.311646,356.094666 520.441956,357.222351 524.002747,356.172272 
	C537.913391,352.070068 547.533325,343.486755 552.415100,328.837280 
M506.748383,289.536499 
	C506.711182,286.709991 506.641541,283.883423 506.645630,281.056976 
	C506.649963,278.060822 505.128510,276.752502 502.246826,277.151520 
	C500.616791,277.377258 498.980255,277.781433 497.432587,278.342316 
	C480.680664,284.413239 469.972534,300.127777 470.355927,317.995758 
	C470.716675,334.808533 482.783752,350.439331 499.546692,355.807404 
	C505.781067,357.803894 506.658661,357.235382 506.674652,350.882996 
	C506.725220,330.763550 506.732178,310.643982 506.748383,289.536499 
M639.540771,447.989258 
	C642.196777,446.274811 644.836121,444.533752 647.513000,442.852448 
	C651.044556,440.634308 652.205750,437.439758 651.576782,433.430328 
	C650.908203,429.168304 650.371521,424.883850 649.617126,420.637604 
	C648.819946,416.151367 647.153809,415.308472 643.660339,418.176086 
	C637.881714,422.919525 632.299438,427.929352 626.905212,433.108948 
	C609.371582,449.945129 591.997437,466.950470 575.832031,485.127045 
	C565.107239,497.186188 554.265198,509.161926 544.929382,522.374756 
	C543.273438,524.718384 541.347473,526.981323 541.107300,530.208618 
	C571.142151,499.751129 603.737549,472.509094 639.540771,447.989258 
M405.519867,461.944611 
	C433.844391,482.364685 459.957336,505.382202 484.892334,529.829346 
	C482.734772,525.038513 479.956604,520.764893 476.749878,516.757324 
	C458.732635,494.240448 439.214264,473.061218 418.806000,452.730011 
	C407.020264,440.988831 394.587982,429.889648 382.286682,418.677063 
	C378.288727,415.033020 376.375153,415.852844 375.583588,421.189484 
	C374.975220,425.290619 374.892334,429.469055 374.301117,433.573547 
	C373.650818,438.088348 375.369324,441.124725 379.088440,443.623779 
	C387.788452,449.469635 396.330200,455.550995 405.519867,461.944611 
M651.450928,478.844879 
	C661.040161,474.511475 671.079712,471.122589 681.670044,465.226135 
	C674.778015,461.148743 669.075500,458.110260 662.673645,456.383026 
	C658.668518,455.302368 654.894226,453.898407 650.877502,456.904602 
	C644.230835,461.879211 637.026001,466.116669 630.314392,470.962372 
	C612.371948,483.916687 594.926208,497.558655 578.153442,512.014282 
	C573.247009,516.242859 567.841736,520.042664 564.217163,525.665833 
	C592.217407,508.515198 620.625671,492.231628 651.450928,478.844879 
M431.119110,507.315887 
	C439.573242,512.412048 448.027405,517.508240 456.481537,522.604431 
	C456.643982,521.385376 456.337189,520.819092 455.901733,520.380676 
	C454.025818,518.491943 452.203461,516.535828 450.198273,514.791992 
	C427.174316,494.768280 403.136475,476.099426 377.595795,459.334961 
	C371.873566,455.579010 366.912689,453.295349 360.363220,456.522491 
	C355.220001,459.056732 349.902618,461.221771 344.456177,466.042419 
	C374.620453,478.335510 403.252258,491.210907 431.119110,507.315887 
M590.943848,567.351562 
	C610.771179,561.094971 630.546265,554.666748 650.437683,548.620850 
	C682.741028,538.802185 715.104126,529.178589 747.486511,519.623413 
	C752.043579,518.278748 753.976562,515.934998 753.912109,511.095795 
	C753.428345,474.813354 753.124878,438.528473 752.733032,402.244751 
	C752.723083,401.325317 753.065369,400.214325 752.039978,399.511810 
	C747.269897,402.603546 745.668335,405.015198 747.258118,407.938385 
	C748.878174,410.917206 748.974060,413.958649 748.998962,417.117249 
	C749.046692,423.183594 746.941467,429.338501 746.979614,434.948975 
	C747.127441,456.705078 748.476807,478.511017 750.617310,500.176025 
	C752.155884,515.748718 748.268066,515.867371 737.131104,519.186035 
	C699.826965,530.301880 662.447937,541.169006 625.192566,552.445251 
	C598.760376,560.445618 572.378540,568.647400 546.645752,578.755554 
	C544.910034,579.437378 542.841980,579.771912 541.436218,582.607605 
	C558.489746,578.359009 574.114014,572.223511 590.943848,567.351562 
M372.430725,543.242126 
	C355.787537,538.557434 339.126709,533.934204 322.506561,529.169250 
	C308.599182,525.181946 294.727997,521.066895 280.865112,516.926819 
	C276.500793,515.623413 273.515289,513.086975 273.860443,507.961395 
	C274.730957,495.033875 276.047577,482.111206 276.259247,469.171448 
	C276.487152,455.240387 279.056091,441.403900 277.109222,427.344208 
	C276.144592,420.378143 275.414612,413.115753 277.243591,405.993225 
	C278.133789,402.526611 275.811646,401.141205 273.198669,400.042084 
	C271.939636,401.471680 272.163147,402.858490 272.138123,404.156830 
	C271.866302,418.279510 271.514618,432.401825 271.398010,446.526001 
	C271.231781,466.661865 271.248383,486.799255 271.177582,506.935944 
	C271.139343,517.818054 271.190460,517.602234 281.725220,520.521973 
	C321.812103,531.632141 361.725281,543.350647 401.401367,555.845215 
	C426.311707,563.689941 451.051331,572.076721 475.874664,580.198547 
	C477.165833,580.620972 478.571625,581.278748 480.660248,579.402893 
	C474.926422,577.132019 469.912598,575.003662 464.800629,573.145203 
	C434.617401,562.172180 403.959839,552.653442 372.430725,543.242126 
M520.490906,582.783630 
	C512.635437,579.594055 505.428253,580.737366 499.173767,586.414795 
	C493.364380,591.688232 494.053619,598.490051 500.744934,602.634705 
	C505.939545,605.852478 511.666992,606.423218 517.574585,605.109497 
	C523.302368,603.835815 529.109253,601.867126 529.973389,595.265381 
	C530.772522,589.160095 525.937073,585.876282 520.490906,582.783630 
z"/>
<path fill="#000000" opacity="1.000000" stroke="none" 
	d="
M235.483185,713.442383 
	C233.982437,710.632141 232.651688,708.149963 231.320953,705.667786 
	C231.027283,705.659058 230.733612,705.650269 230.439941,705.641541 
	C230.353943,707.277405 230.149521,708.916992 230.201752,710.548462 
	C230.478210,719.181641 229.335754,727.856995 230.995621,736.456665 
	C231.169662,737.358398 230.877884,738.458008 230.503464,739.338867 
	C228.905487,743.097656 223.105392,744.715942 216.634521,743.163574 
	C212.749359,742.231567 211.450455,739.522705 211.644073,735.686340 
	C212.776398,713.250366 211.640213,690.811584 211.630356,668.373657 
	C211.628998,665.266113 211.648483,662.199951 215.193054,660.925903 
	C219.582565,659.348022 225.936905,660.795044 227.742599,663.906372 
	C233.089432,673.119202 238.304565,682.408569 243.559845,691.674438 
	C244.701599,693.687439 245.701691,695.795532 247.474045,697.375488 
	C250.211349,696.919373 250.733688,694.536682 251.745331,692.784302 
	C256.737732,684.135986 261.553070,675.385498 266.535004,666.731079 
	C269.889923,660.903076 274.995026,658.894409 281.229187,660.871460 
	C284.249146,661.829224 285.069916,664.238770 284.897430,667.175903 
	C283.627808,688.796021 284.455475,710.434937 284.304504,732.065247 
	C284.288330,734.385864 285.768250,736.523376 284.905243,738.934265 
	C283.467529,742.950500 277.389893,744.924316 270.300201,743.181641 
	C266.087952,742.146240 264.881561,739.099304 265.345703,734.788513 
	C266.395966,725.034302 265.582825,715.249817 265.648163,704.327759 
	C261.874084,708.331848 260.596436,712.438843 258.757202,716.165527 
	C256.254578,721.236328 254.085281,726.463318 251.123154,731.313416 
	C249.012390,734.769531 246.997528,735.038940 245.009735,731.407288 
	C241.814621,725.570068 238.764557,719.653442 235.483185,713.442383 
z"/>
<path fill="#000000" opacity="1.000000" stroke="none" 
	d="
M604.334473,713.201355 
	C604.569641,721.137878 603.524902,728.657227 605.224365,736.076233 
	C605.403625,736.858643 605.331909,737.762268 605.144165,738.554504 
	C604.192322,742.570068 598.956543,744.404968 591.795105,743.286682 
	C587.826294,742.666992 585.619995,739.502991 585.890320,735.403870 
	C587.381226,712.797180 587.125305,690.182617 585.898560,667.575256 
	C585.668518,663.335388 587.509277,661.145630 591.801086,660.656982 
	C597.286499,660.032410 601.224670,661.349121 603.909241,666.837585 
	C608.074463,675.352966 612.978882,683.508118 617.609619,691.793762 
	C618.811462,693.944214 620.161011,696.012146 621.719604,698.572937 
	C625.838745,693.501770 628.194580,687.994263 631.251953,682.943665 
	C634.701477,677.245300 637.806213,671.339294 641.191467,665.600586 
	C643.909546,660.992981 650.732239,658.924744 655.528076,661.097900 
	C658.348267,662.375793 658.350403,664.911255 658.336243,667.474365 
	C658.241394,684.639282 658.127319,701.804321 658.103210,718.969421 
	C658.095276,724.630798 658.266663,730.295105 658.482910,735.953186 
	C658.652344,740.385071 656.714661,742.918091 652.385986,743.298035 
	C650.234863,743.486816 648.052734,743.451538 645.890930,743.362915 
	C640.982239,743.161621 638.168640,739.957397 638.956482,735.149414 
	C640.613586,725.036194 639.159607,714.901917 639.853882,703.830933 
	C637.591919,705.727112 636.871277,707.491760 636.017822,709.177917 
	C632.331909,716.459717 628.781677,723.817139 624.857361,730.968872 
	C622.438660,735.376709 620.723572,735.313965 618.366455,730.910889 
	C614.750977,724.157349 611.416809,717.253357 607.940613,710.424744 
	C607.200745,708.971436 606.850098,707.258606 605.023865,706.041992 
	C603.757751,708.251526 604.564514,710.572937 604.334473,713.201355 
z"/>
<path fill="#000000" opacity="1.000000" stroke="none" 
	d="
M787.188904,694.808105 
	C788.551758,696.884521 789.739990,698.651978 791.281860,700.945618 
	C792.656067,696.653809 792.486450,692.941162 792.338684,689.202637 
	C792.055908,682.049316 791.791931,674.892639 791.704163,667.735107 
	C791.640869,662.567932 793.433716,660.851135 798.505005,660.675476 
	C810.288879,660.267151 810.357361,660.417358 810.319275,672.174377 
	C810.256653,691.494202 810.317749,710.814514 810.329102,730.134583 
	C810.329590,730.967224 810.221497,731.827942 810.390381,732.627747 
	C811.296997,736.921753 811.794128,741.044800 806.479187,742.933044 
	C800.984070,744.885193 795.946777,743.320312 792.662476,738.197754 
	C786.193909,728.108704 779.947815,717.877136 773.602905,707.708679 
	C772.494263,705.931946 771.352722,704.175720 769.747131,702.536255 
	C769.337830,713.554626 768.733154,724.456421 769.774963,735.339905 
	C770.216431,739.951660 768.375183,742.895569 763.886597,743.275818 
	C761.245056,743.499573 758.501953,743.634277 755.918213,743.172791 
	C751.912781,742.457458 750.488220,739.184326 750.927734,735.662964 
	C752.461853,723.370300 751.462097,711.054504 751.578186,698.756714 
	C751.677063,688.278687 752.134460,677.784607 751.196106,667.304932 
	C750.817261,663.073425 752.940063,661.090454 757.316162,660.584106 
	C763.353638,659.885559 767.295593,661.881470 770.341003,667.230164 
	C775.610229,676.484070 781.427124,685.426208 787.188904,694.808105 
z"/>
<path fill="#000000" opacity="1.000000" stroke="none" 
	d="
M521.092651,665.461304 
	C522.368896,661.717834 524.857361,660.648132 528.220154,660.702087 
	C533.879089,660.792969 539.542603,660.604004 545.201172,660.704041 
	C555.546204,660.886963 563.869263,666.938049 567.205444,676.541382 
	C570.973816,687.388794 568.676819,697.391724 560.317383,704.012268 
	C557.196411,706.484131 557.205200,708.542786 559.073303,711.524536 
	C563.666138,718.855591 568.187988,726.232239 572.648071,733.644836 
	C575.722778,738.754883 573.584412,742.639465 567.693848,743.383423 
	C560.689209,744.268066 555.463623,742.413452 552.170105,735.609863 
	C549.495117,730.083923 546.052490,724.930481 542.975403,719.597412 
	C542.396545,718.594177 541.925781,717.533508 539.781250,717.034851 
	C539.038452,722.955017 538.832153,728.623047 539.797668,734.307373 
	C540.779541,740.088440 538.849365,742.856079 533.058411,743.374390 
	C531.083252,743.551208 529.064697,743.524902 527.088074,743.346619 
	C522.503052,742.933167 520.398926,740.235657 520.745667,735.627686 
	C522.494995,712.381653 522.118225,689.126404 521.092651,665.461304 
M539.793152,688.684082 
	C540.311401,691.122559 538.430786,695.201477 542.650757,695.254456 
	C546.138428,695.298340 549.331238,693.125183 550.534485,689.339661 
	C551.355530,686.756775 550.778442,684.403870 548.650757,682.561218 
	C546.662903,680.839600 544.326355,679.649841 541.796509,680.629211 
	C539.200500,681.634277 540.383850,684.379639 539.955811,686.373474 
	C539.852173,686.856140 539.879028,687.366821 539.793152,688.684082 
z"/>
<path fill="#000000" opacity="1.000000" stroke="none" 
	d="
M394.235107,691.803345 
	C392.657959,697.125305 390.022705,701.383301 385.790649,704.290649 
	C382.748260,706.380798 383.162323,708.446899 384.731537,711.010559 
	C389.160614,718.246277 393.602020,725.474976 397.952881,732.757690 
	C399.273376,734.968018 401.238525,737.132324 399.336609,740.053833 
	C397.581573,742.749573 395.001221,743.115906 392.041840,743.470154 
	C385.836365,744.213013 382.042816,741.412170 379.075165,736.334839 
	C375.247009,729.785217 371.092377,723.426331 366.339386,717.144470 
	C365.187531,722.743225 364.858643,728.221619 365.848358,733.684814 
	C366.447235,736.990723 366.703522,739.984985 363.571381,742.182556 
	C361.264160,743.801331 352.336578,743.961670 350.067444,742.303040 
	C347.185303,740.196411 346.934296,737.397034 347.269989,733.910889 
	C347.873901,727.638855 347.918060,721.284424 347.771515,714.974304 
	C347.400940,699.017700 348.578064,683.043518 347.114807,667.096008 
	C346.800781,663.673401 348.716553,660.994934 352.209473,660.883911 
	C359.673676,660.646790 367.166992,660.152222 374.626068,661.191406 
	C387.213867,662.944885 397.101013,675.160400 394.235107,691.803345 
M365.351807,688.280640 
	C365.542816,690.848755 364.851501,693.543945 366.212372,696.006226 
	C368.986694,695.696655 371.308105,694.796021 373.429260,693.469849 
	C376.691956,691.429932 377.866669,688.352722 376.372833,684.869568 
	C374.897491,681.429626 371.580719,680.064575 368.108276,680.543396 
	C363.800385,681.137390 365.915741,684.961609 365.351807,688.280640 
z"/>
<path fill="#000000" opacity="1.000000" stroke="none" 
	d="
M456.838776,673.010620 
	C464.670105,661.158447 473.200500,657.379211 483.775665,660.851624 
	C490.044312,662.909912 494.407227,667.404724 497.054962,673.056763 
	C506.403992,693.013855 506.537537,712.958862 495.254272,732.289185 
	C490.849365,739.835632 484.159180,743.976685 474.959961,743.504944 
	C469.722809,743.236389 465.662842,740.995056 462.419830,737.195679 
	C452.324982,725.368958 449.091339,711.447449 450.289917,696.250305 
	C450.924683,688.201904 452.832153,680.497681 456.838776,673.010620 
M467.276245,698.622498 
	C467.029083,704.652161 467.263519,710.625977 470.713287,715.874634 
	C474.113739,721.048218 480.287903,721.169434 483.207520,715.786377 
	C488.393158,706.225403 487.967896,696.189392 483.333771,686.644348 
	C480.383850,680.568237 473.227753,680.850342 469.820801,686.705688 
	C467.860413,690.075012 467.102875,693.797546 467.276245,698.622498 
z"/>
<path fill="#000000" opacity="1.000000" stroke="none" 
	d="
M731.331787,720.723022 
	C733.222717,725.571716 735.103027,730.013428 736.804138,734.522705 
	C738.771729,739.738525 736.709656,742.850098 731.126587,743.334900 
	C721.841003,744.141174 720.165100,743.342102 717.452881,734.242004 
	C715.831360,728.801514 713.023560,726.386780 707.425598,727.307434 
	C706.777344,727.414001 706.096924,727.325439 705.431396,727.325439 
	C695.400757,727.326233 695.400757,727.326172 692.241394,736.647339 
	C690.126587,742.886902 680.529541,746.091309 675.244263,742.287231 
	C672.279236,740.153198 672.451111,737.383545 673.555054,734.268860 
	C678.885315,719.231018 684.140747,704.166504 689.394043,689.101440 
	C691.966309,681.724915 694.441040,674.314270 697.028564,666.943115 
	C698.375427,663.106201 700.328430,660.481201 705.233154,660.508728 
	C710.230103,660.536865 711.237244,663.697510 712.476685,667.215210 
	C718.718384,684.930115 724.984436,702.636475 731.331787,720.723022 
M707.203308,707.896729 
	C707.567017,704.752136 706.600647,702.015137 704.773865,698.945251 
	C703.239441,702.304871 701.855164,705.039429 702.038879,708.319519 
	C703.795959,708.847778 705.232788,708.870728 707.203308,707.896729 
z"/>
<path fill="#000000" opacity="1.000000" stroke="none" 
	d="
M409.290100,696.672241 
	C410.669708,694.683594 412.653137,694.544861 414.285583,693.797241 
	C417.598175,692.280212 420.019135,690.063049 419.460815,686.173950 
	C418.902069,682.281982 416.281219,679.656311 412.416748,679.544861 
	C408.146606,679.421631 407.465240,677.278198 407.628845,673.800964 
	C407.705688,672.167542 407.417786,670.491394 407.109680,668.869934 
	C405.954590,662.791199 408.787964,659.734253 415.085876,660.464111 
	C425.154694,661.630981 432.142487,666.899414 435.229706,676.599670 
	C438.462646,686.757812 437.027069,696.254089 428.713409,703.481506 
	C425.542023,706.238525 425.539612,708.188599 427.323822,711.383606 
	C431.225189,718.369751 435.280304,725.250427 439.782135,731.868225 
	C441.474396,734.355835 443.422180,736.950073 441.719788,740.117737 
	C439.956818,743.398010 436.628693,743.346008 433.410889,743.547180 
	C428.218231,743.871765 424.312714,741.846924 421.719269,737.428711 
	C418.264282,731.542725 414.908905,725.597229 411.578613,719.639343 
	C407.567047,712.462646 406.508270,704.927490 409.290100,696.672241 
z"/>
<path fill="#000000" opacity="1.000000" stroke="none" 
	d="
M315.179871,660.666321 
	C316.968201,660.666199 318.299255,660.634277 319.628082,660.674683 
	C324.323395,660.817444 326.209473,662.919128 325.926727,667.524048 
	C324.631775,688.612732 325.658752,709.722412 325.384186,730.820557 
	C325.377777,731.316650 325.436096,731.817017 325.502319,732.310242 
	C326.778381,741.814148 325.225891,743.564209 315.697266,743.353149 
	C309.511047,743.216187 307.673737,741.422974 307.666779,735.273254 
	C307.644318,715.322937 307.672302,695.372559 307.655853,675.422241 
	C307.654083,673.265930 307.614441,671.095825 307.376282,668.956177 
	C306.710693,662.976196 308.403259,661.015015 315.179871,660.666321 
z"/>
<path fill="#000000" opacity="1.000000" stroke="none" 
	d="
M354.940826,796.339966 
	C352.977875,796.335876 351.479736,796.250427 349.992859,796.344116 
	C345.985016,796.596802 344.075531,794.492615 343.993286,790.751831 
	C343.829163,783.290283 343.816162,775.824463 343.824860,768.360474 
	C343.829254,764.611694 346.240570,763.105286 349.591644,762.845032 
	C353.923584,762.508484 358.237579,763.107727 362.437988,763.976807 
	C366.814423,764.882202 369.144012,769.490173 368.405853,774.595825 
	C368.200317,776.017334 367.394196,777.237061 367.915283,778.908691 
	C371.793152,791.349792 368.242889,796.227417 354.940826,796.339966 
M356.604675,783.350037 
	C355.012360,783.440186 353.409943,783.712036 353.665833,785.796631 
	C353.873444,787.487488 355.332977,787.684448 356.737579,787.550293 
	C358.286407,787.402405 359.936523,786.954163 360.130524,785.210693 
	C360.345245,783.281616 358.616547,783.438293 356.604675,783.350037 
z"/>
<path fill="#000000" opacity="1.000000" stroke="none" 
	d="
M587.144287,764.490845 
	C593.801880,768.944946 597.252502,774.728699 595.836548,782.453186 
	C594.535828,789.548706 590.367676,794.545288 583.129517,796.273132 
	C576.014832,797.971497 569.311462,794.758240 565.417664,788.146118 
	C561.737488,781.896851 562.496277,773.771606 567.283325,768.167236 
	C572.089844,762.540161 578.903442,761.193237 587.144287,764.490845 
M573.156006,778.769775 
	C573.661316,783.999207 576.335083,787.018066 580.118591,786.630920 
	C583.696716,786.264832 586.386841,782.401733 585.659851,778.552917 
	C585.027649,775.206055 582.730469,773.111694 579.591675,772.771606 
	C576.126343,772.396179 574.302856,774.951111 573.156006,778.769775 
z"/>
<path fill="#000000" opacity="1.000000" stroke="none" 
	d="
M390.821777,792.198608 
	C385.175598,786.245605 384.193054,779.580994 386.972443,772.531433 
	C389.291748,766.648926 394.049652,763.329102 400.349152,762.732666 
	C408.123352,761.996643 414.568787,766.623352 417.388763,774.587036 
	C419.787659,781.361511 416.969269,789.616333 410.765869,793.984680 
	C404.399567,798.467712 398.237213,797.987549 390.821777,792.198608 
M395.394379,778.777588 
	C396.016876,785.268005 400.276489,788.404114 404.646637,785.593445 
	C407.335175,783.864319 408.384521,781.416809 407.668549,778.321716 
	C406.982849,775.357666 405.281494,772.974609 402.180481,772.566040 
	C398.304199,772.055298 396.692841,774.941956 395.394379,778.777588 
z"/>
<path fill="#000000" opacity="1.000000" stroke="none" 
	d="
M439.959839,765.755554 
	C446.509216,761.665466 452.783691,761.350830 458.824188,765.819336 
	C464.308502,769.876404 467.128906,775.423035 465.854126,782.254517 
	C464.417969,789.950867 459.736023,794.948486 451.906403,796.697571 
	C445.729248,798.077576 438.104553,793.986145 435.187042,787.707214 
	C431.643372,780.080688 433.219299,772.443970 439.959839,765.755554 
M455.699127,781.103638 
	C455.999176,776.785767 454.400391,773.455078 450.001831,772.578613 
	C446.441620,771.869263 444.521973,774.608276 443.622375,777.549255 
	C442.471588,781.311279 443.758942,784.670349 447.445221,786.157288 
	C451.437714,787.767883 453.948395,785.343262 455.699127,781.103638 
z"/>
<path fill="#000000" opacity="1.000000" stroke="none" 
	d="
M634.372498,765.400452 
	C639.914795,770.954407 640.756042,776.216309 636.624084,782.114502 
	C634.617859,784.978333 635.554321,786.997314 636.993347,789.348145 
	C638.273315,791.439148 639.363586,793.871094 636.891663,795.554871 
	C634.476746,797.199707 631.838501,796.670715 629.679443,794.451294 
	C627.989624,792.714294 627.303650,790.022949 624.729187,789.082397 
	C622.829346,790.242493 623.080078,792.332458 622.478027,793.957336 
	C621.733398,795.966919 620.522949,797.111328 618.457275,796.944458 
	C616.156860,796.758789 613.934448,795.753174 613.887329,793.178467 
	C613.726257,784.369202 613.706177,775.551270 613.937500,766.744568 
	C614.010071,763.981018 616.456299,762.982239 618.964172,762.847839 
	C624.146118,762.570312 629.293945,762.683472 634.372498,765.400452 
M627.832092,778.544067 
	C629.963989,777.513977 630.117065,775.826050 629.077209,774.029724 
	C628.256348,772.611755 626.765625,772.193359 625.189209,772.564880 
	C623.260498,773.019409 623.327087,774.622742 623.367676,776.125244 
	C623.435852,778.652283 625.013428,779.067566 627.832092,778.544067 
z"/>
<path fill="#000000" opacity="1.000000" stroke="none" 
	d="
M482.709839,767.405823 
	C483.136688,764.277466 484.503876,762.572083 487.386871,762.873413 
	C492.046539,763.360291 491.721008,767.585999 492.943298,771.311523 
	C495.068390,769.045471 496.831360,767.134338 498.629669,765.257141 
	C500.318176,763.494568 502.278809,762.362061 504.848785,762.769409 
	C508.615845,763.366455 509.470062,765.547241 507.272949,768.625854 
	C504.890472,771.964233 499.946655,774.185120 500.088348,778.347473 
	C500.216858,782.122742 504.488831,784.797607 506.541779,788.212830 
	C507.890472,790.456482 510.958466,792.905640 507.509155,795.500916 
	C504.356567,797.872864 501.589874,796.011902 499.173035,793.602417 
	C497.200195,791.635620 496.250916,788.764954 493.737122,787.283508 
	C491.801483,788.383667 492.489746,790.320435 492.034393,791.819214 
	C491.178131,794.637390 489.849701,796.701355 486.449554,796.282410 
	C483.155640,795.876526 482.653931,793.587463 482.664795,790.853027 
	C482.695221,783.189026 482.679443,775.524841 482.709839,767.405823 
z"/>
<path fill="#000000" opacity="1.000000" stroke="none" 
	d="
M673.221558,782.097534 
	C671.099976,783.940735 667.777344,782.348267 666.397888,785.342834 
	C668.398560,787.847900 671.112061,786.792786 673.401428,787.132629 
	C676.276367,787.559265 678.867981,788.282349 678.612793,791.817627 
	C678.385376,794.969055 676.340881,796.425171 673.167603,796.375488 
	C669.340698,796.315613 665.512024,796.373047 661.684814,796.324158 
	C658.452148,796.282837 656.737976,794.559387 656.715698,791.357056 
	C656.661194,783.535461 656.714294,775.713196 656.676575,767.891418 
	C656.660034,764.465942 658.842346,763.054688 661.710876,762.865845 
	C665.685486,762.604187 669.695984,762.718018 673.683167,762.873840 
	C676.454041,762.982117 678.713928,764.331787 678.714355,767.338928 
	C678.714722,770.564758 676.195801,771.276123 673.466248,771.338989 
	C672.967102,771.350525 672.464050,771.321106 671.969360,771.373230 
	C669.917114,771.589417 666.779114,770.854614 666.640564,773.627991 
	C666.486084,776.718994 669.584839,775.156250 671.311829,775.445801 
	C675.978760,776.228088 674.346252,779.172302 673.221558,782.097534 
z"/>
<path fill="#000000" opacity="1.000000" stroke="none" 
	d="
M544.683777,772.970459 
	C541.569946,774.098816 538.908447,772.079590 535.639526,772.657166 
	C537.261230,775.065247 539.451172,775.529480 541.303284,776.398865 
	C545.694031,778.459778 547.238281,782.161316 546.905640,786.592651 
	C546.506287,791.911316 542.639771,795.579834 536.755310,796.712097 
	C532.114014,797.605103 528.189087,796.231750 525.274658,792.470398 
	C524.180298,791.057983 524.146851,789.349060 525.079163,787.766296 
	C526.020813,786.167664 527.545166,785.464233 529.317261,785.755005 
	C530.765320,785.992493 532.161865,786.575378 533.562683,787.059082 
	C534.569153,787.406677 535.595276,787.620850 536.207764,786.554077 
	C537.020508,785.138672 536.000061,784.409241 534.893555,783.864319 
	C533.255676,783.057739 531.463379,782.497864 529.961060,781.496460 
	C526.400024,779.122864 524.188538,775.868042 525.062622,771.389099 
	C525.997375,766.598877 529.283875,763.959045 533.895996,762.988220 
	C538.246216,762.072449 542.264587,762.885620 545.206299,766.446106 
	C546.833374,768.415405 546.905518,770.710693 544.683777,772.970459 
z"/>
<path fill="#000000" opacity="1.000000" stroke="none" 
	d="
M710.265625,772.773193 
	C719.275696,771.629761 727.923706,772.046326 736.549133,771.963562 
	C740.546326,771.925110 744.423340,772.940247 744.901978,777.897888 
	C745.235474,781.351807 741.314087,784.115906 736.236511,784.164795 
	C728.433228,784.239929 720.627930,784.239441 712.825073,784.140930 
	C709.499207,784.098999 706.942383,782.408264 706.212585,779.125610 
	C705.568298,776.227783 707.007263,773.992981 710.265625,772.773193 
z"/>
<path fill="#000000" opacity="1.000000" stroke="none" 
	d="
M313.525269,773.174438 
	C317.792542,778.363831 316.114502,783.514099 309.925934,783.935486 
	C301.845062,784.485596 293.692688,784.340515 285.588776,784.030823 
	C282.106659,783.897827 279.005035,781.968689 279.121582,777.847778 
	C279.229248,774.040833 282.061676,772.160461 285.487061,772.191895 
	C294.714294,772.276428 304.002777,770.645752 313.525269,773.174438 
z"/>
<path fill="#000000" opacity="1.000000" stroke="none" 
	d="
M306.507690,612.619202 
	C299.090424,614.226196 295.939331,612.974731 294.395905,607.973083 
	C293.179779,604.031860 294.221863,600.716858 297.702606,598.391052 
	C301.031097,596.166870 304.442474,596.460938 307.412415,598.947327 
	C310.586426,601.604431 311.152649,605.174316 309.564453,608.911011 
	C309.005005,610.227356 307.760315,611.252441 306.507690,612.619202 
z"/>
<path fill="#000000" opacity="1.000000" stroke="none" 
	d="
M714.822144,605.078369 
	C716.762756,598.787903 720.083069,596.364136 724.813965,597.407837 
	C729.541138,598.450623 731.816528,601.639404 731.286072,606.477783 
	C730.839661,610.549500 727.469482,613.508606 723.076965,613.685547 
	C718.739258,613.860229 716.260681,611.402771 714.822144,605.078369 
z"/>
<path fill="#000000" opacity="1.000000" stroke="none" 
	d="
M698.322998,613.325439 
	C693.203735,611.845947 691.105896,608.541565 691.898132,603.825562 
	C692.583496,599.745605 695.514404,597.373901 699.575684,597.271179 
	C703.771118,597.164978 706.927917,599.156616 707.992981,603.552795 
	C709.312195,608.998108 705.395447,613.132751 698.322998,613.325439 
z"/>
<path fill="#000000" opacity="1.000000" stroke="none" 
	d="
M325.075500,613.384766 
	C318.914124,612.236816 316.955475,609.633789 317.631531,604.056702 
	C318.131104,599.935791 321.813782,596.889404 325.998596,597.135376 
	C330.004517,597.370850 333.046478,600.460571 333.349396,604.601624 
	C333.726501,609.757141 331.181610,612.606506 325.075500,613.384766 
z"/>
<path fill="#000000" opacity="1.000000" stroke="none" 
	d="
M502.313416,306.726501 
	C503.310211,307.831482 504.072144,308.684021 504.959381,309.676758 
	C502.578674,311.413788 500.333771,313.051697 498.088898,314.689636 
	C498.267731,315.185730 498.446594,315.681824 498.625427,316.177917 
	C496.527679,314.213196 494.429932,312.248474 492.014709,309.986420 
	C494.192169,307.383789 496.156738,305.035614 498.047058,302.776245 
	C500.547180,303.063019 500.826965,305.272003 502.313416,306.726501 
z"/>
</svg>